<?xml version="1.0" encoding="UTF-8"?>
<svg xmlns="http://www.w3.org/2000/svg" viewBox="0 0 800 560" width="800" height="560">
  <defs>
    <linearGradient id="water" x1="0" y1="0" x2="0" y2="1">
      <stop offset="0%" stop-color="#1a2838"/>
      <stop offset="100%" stop-color="#0f1824"/>
    </linearGradient>
  </defs>
  <rect width="800" height="560" fill="#12151a"/>
  <path d="M320 0 L380 0 L420 560 L300 560 Z" fill="url(#water)" stroke="#2a3d52" stroke-width="1"/>
  <text x="340" y="280" fill="#4a6a8a" font-family="Georgia,serif" font-size="11" opacity="0.7">RIVER</text>
  <rect x="80" y="40" width="220" height="480" fill="#1e252e" stroke="#3d4f63" stroke-width="1"/>
  <text x="120" y="70" fill="#c9a962" font-family="Georgia,serif" font-size="12">Embankment W</text>
  <rect x="100" y="200" width="40" height="24" fill="#2a3540" stroke="#5a6a7a"/>
  <text x="102" y="216" fill="#8a9aaa" font-size="8">boats</text>
  <rect x="120" y="320" width="140" height="100" fill="#252b35" stroke="#4d5d6d"/>
  <text x="155" y="365" fill="#b8a878" font-family="Georgia,serif" font-size="11">Market</text>
  <rect x="140" y="420" width="70" height="55" fill="#3a3028" stroke="#8b7355"/>
  <text x="148" y="448" fill="#d4c4a4" font-family="Georgia,serif" font-size="10">Tavern</text>
  <rect x="200" y="80" width="60" height="70" fill="#2a3238" stroke="#5a6570"/>
  <text x="208" y="118" fill="#9aa0a8" font-size="9">Hall</text>
  <rect x="500" y="40" width="220" height="480" fill="#1e252e" stroke="#3d4f63"/>
  <text x="540" y="70" fill="#c9a962" font-family="Georgia,serif" font-size="12">Barge dock</text>
  <rect x="300" y="480" width="200" height="40" fill="#3a3530" stroke="#6b5a48"/>
  <text x="340" y="503" fill="#c9a962" font-size="11" font-family="Georgia,serif">Bridge DAM</text>
  <rect x="520" y="120" width="100" height="140" fill="#252830" stroke="#5a5d68"/>
  <polygon points="520,120 570,80 620,120" fill="#303540" stroke="#6a6d78"/>
  <text x="535" y="200" fill="#a8b0c0" font-size="10">Abbey</text>
  <text x="530" y="215" fill="#7a8a9a" font-size="8">St. Ewald</text>
  <rect x="560" y="60" width="36" height="50" fill="#353842" stroke="#6a7080"/>
  <text x="548" y="55" fill="#c9a962" font-size="9">bell</text>
  <rect x="620" y="380" width="80" height="60" fill="#282c32" stroke="#4a5058"/>
  <text x="635" y="412" fill="#8a9098" font-size="9">Warehouses</text>
  <rect x="30" y="20" width="200" height="75" fill="#181c22" stroke="#c9a962" stroke-opacity="0.4"/>
  <text x="40" y="38" fill="#c9a962" font-family="Georgia,serif" font-size="13" font-weight="bold">Grey Wharf</text>
  <text x="40" y="55" fill="#9a9aa0" font-size="9">top-down / schema</text>
  <text x="40" y="72" fill="#7a8a98" font-size="8">River runs vertical</text>
</svg>
