<?xml version="1.0" encoding="UTF-8"?>
<svg xmlns="http://www.w3.org/2000/svg" viewBox="0 0 640 480" width="640" height="480">
  <rect width="640" height="480" fill="#1a1815"/>
  <rect x="20" y="20" width="600" height="440" fill="#252220" stroke="#5c4e3d" stroke-width="2"/>
  <rect x="280" y="440" width="80" height="20" fill="#3a3028" stroke="#8b7355"/>
  <text x="285" y="455" fill="#a09070" font-size="9">ENTRANCE</text>
  <rect x="40" y="60" width="200" height="36" fill="#3d3530" stroke="#6b5a48"/>
  <text x="100" y="82" fill="#c9a962" font-family="Georgia,serif" font-size="11">Bar</text>
  <ellipse cx="380" cy="120" rx="45" ry="28" fill="#2a2520" stroke="#4a4035"/>
  <ellipse cx="480" cy="200" rx="45" ry="28" fill="#2a2520" stroke="#4a4035"/>
  <ellipse cx="420" cy="300" rx="50" ry="30" fill="#2a2520" stroke="#5a5045"/>
  <text x="395" y="125" fill="#6a6055" font-size="8">table 1</text>
  <text x="495" y="205" fill="#6a6055" font-size="8">table 2</text>
  <text x="430" y="305" fill="#6a6055" font-size="8">Erwin table</text>
  <circle cx="400" cy="285" r="10" fill="#4a4540" stroke="#7a7068"/>
  <circle cx="460" cy="285" r="10" fill="#4a4540" stroke="#7a7068"/>
  <circle cx="430" cy="315" r="12" fill="#5a5048" stroke="#c9a962"/>
  <text x="418" y="340" fill="#c9a962" font-size="9">Erwin</text>
  <rect x="520" y="40" width="90" height="100" fill="#302820" stroke="#5a4a38"/>
  <text x="535" y="95" fill="#8a7860" font-size="9">kitchen</text>
  <rect x="40" y="380" width="50" height="60" fill="#353028" stroke="#5a5040"/>
  <text x="45" y="412" fill="#8a8070" font-size="8">stairs</text>
  <rect x="600" y="100" width="12" height="80" fill="#1a2530" stroke="#3a5060"/>
  <rect x="600" y="240" width="12" height="80" fill="#1a2530" stroke="#3a5060"/>
  <line x1="20" y1="240" x2="620" y2="240" stroke="#ffffff" stroke-opacity="0.05"/>
  <line x1="320" y1="20" x2="320" y2="460" stroke="#ffffff" stroke-opacity="0.05"/>
  <text x="180" y="18" fill="#c9a962" font-family="Georgia,serif" font-size="14">Three Barrels tavern - top</text>
</svg>
