<?xml version="1.0" encoding="UTF-8"?>
<svg xmlns="http://www.w3.org/2000/svg" viewBox="0 0 720 520" width="720" height="520">
  <rect width="720" height="520" fill="#0e141a"/>
  <rect x="0" y="0" width="720" height="200" fill="#15202c" stroke="#2a4055"/>
  <text x="300" y="100" fill="#3a5580" font-size="11">upstream</text>
  <rect x="200" y="180" width="320" height="50" fill="#3a3835" stroke="#6b6055"/>
  <text x="280" y="212" fill="#c9a962" font-size="12" font-family="Georgia,serif">DAM</text>
  <rect x="340" y="230" width="40" height="80" fill="#2a3038" stroke="#5a6570"/>
  <text x="318" y="275" fill="#8a9aaa" font-size="8">lock</text>
  <rect x="0" y="320" width="720" height="200" fill="#121a24" stroke="#2a3545"/>
  <text x="280" y="420" fill="#3a5080" font-size="11">downstream</text>
  <rect x="80" y="200" width="560" height="24" fill="#4a4035" stroke="#7a6a55"/>
  <text x="300" y="216" fill="#d4c4a4" font-size="10">Walkway</text>
  <rect x="40" y="40" width="120" height="50" fill="#2a2520" stroke="#5a5045"/>
  <rect x="560" y="40" width="120" height="50" fill="#2a2520" stroke="#5a5045"/>
  <text x="70" y="72" fill="#8a8070" font-size="9">barge</text>
  <text x="590" y="72" fill="#8a8070" font-size="9">barge</text>
  <rect x="620" y="210" width="70" height="40" fill="#1a2520" stroke="#4a6040" stroke-dasharray="4"/>
  <text x="625" y="233" fill="#6a8a60" font-size="8">cover</text>
  <rect x="30" y="210" width="70" height="40" fill="#1a2520" stroke="#4a6040" stroke-dasharray="4"/>
  <text x="38" y="233" fill="#6a8a60" font-size="8">cover</text>
  <circle cx="650" cy="120" r="8" fill="#5a5048"/>
  <circle cx="70" cy="120" r="8" fill="#5a5048"/>
  <text x="220" y="18" fill="#c9a962" font-family="Georgia,serif" font-size="14">Dam and bridge - top</text>
</svg>
