<?xml version="1.0" encoding="UTF-8"?>
<svg xmlns="http://www.w3.org/2000/svg" viewBox="0 0 680 540" width="680" height="540">
  <rect width="680" height="540" fill="#0a0c10"/>
  <ellipse cx="340" cy="400" rx="280" ry="100" fill="#0f1824" stroke="#2a4050"/>
  <text x="260" y="405" fill="#2a5080" font-size="10">water</text>
  <rect x="220" y="280" width="240" height="80" fill="#2a2825" stroke="#5a5048"/>
  <text x="280" y="318" fill="#a09080" font-size="10">platform</text>
  <ellipse cx="340" cy="200" rx="70" ry="90" fill="#3a3a42" stroke="#6a6a78"/>
  <text x="300" y="205" fill="#8a8a98" font-size="10">BELL</text>
  <circle cx="340" cy="360" r="18" fill="#4a4048" stroke="#c9a962"/>
  <text x="315" y="365" fill="#c9a962" font-size="9">victim</text>
  <rect x="520" y="300" width="24" height="60" fill="#5a5048" stroke="#8b7355"/>
  <text x="500" y="335" fill="#c9a962" font-size="9">lever</text>
  <rect x="480" y="80" width="160" height="50" fill="#252830" stroke="#4a5058"/>
  <text x="510" y="110" fill="#a8a0b0" font-size="9">gallery ranged</text>
  <circle cx="520" cy="105" r="10" fill="#5a4860"/>
  <text x="505" y="140" fill="#c9a962" font-size="8">Liora</text>
  <rect x="40" y="120" width="40" height="200" fill="#353028" stroke="#5a5040"/>
  <text x="35" y="220" fill="#8a8070" font-size="8">stairs</text>
  <path d="M200 450 L240 430 L260 460 L220 470 Z" fill="#4a6080" opacity="0.4"/>
  <path d="M420 450 L460 430 L480 460 L440 470 Z" fill="#4a6080" opacity="0.4"/>
  <text x="200" y="24" fill="#c9a962" font-family="Georgia,serif" font-size="14">Bell chamber - finale - top</text>
</svg>
