<?xml version="1.0" encoding="UTF-8"?>
<svg xmlns="http://www.w3.org/2000/svg" width="1200" height="900" viewBox="0 0 1200 900">
  <rect width="1200" height="900" fill="#141418"/>
  <rect x="0" y="300" width="1200" height="300" fill="#2d4a5a" stroke="#1e1c24" stroke-width="2"/><rect x="0" y="0" width="1200" height="300" fill="#3a3642" stroke="#1e1c24" stroke-width="2"/><rect x="0" y="600" width="1200" height="300" fill="#3a3642" stroke="#1e1c24" stroke-width="2"/><rect x="350" y="250" width="500" height="400" fill="#6b5a48" stroke="#1e1c24" stroke-width="2"/><rect x="370" y="270" width="50" height="360" fill="#d8d2c8" stroke="#1e1c24" stroke-width="1"/><rect x="445" y="270" width="50" height="360" fill="#d8d2c8" stroke="#1e1c24" stroke-width="1"/><rect x="520" y="270" width="50" height="360" fill="#d8d2c8" stroke="#1e1c24" stroke-width="1"/><rect x="595" y="270" width="50" height="360" fill="#d8d2c8" stroke="#1e1c24" stroke-width="1"/><rect x="670" y="270" width="50" height="360" fill="#d8d2c8" stroke="#1e1c24" stroke-width="1"/><rect x="745" y="270" width="50" height="360" fill="#d8d2c8" stroke="#1e1c24" stroke-width="1"/>
  <circle cx="600" cy="450" r="22" fill="#c9a227" opacity="0.95"/>
  <text x="600" y="456" text-anchor="middle" fill="#111" font-size="18" font-weight="bold">A</text><text x="600" y="520" text-anchor="middle" fill="#f0ebe3" font-size="11">центр моста</text>
  <circle cx="400" cy="200" r="22" fill="#a4133c" opacity="0.95"/>
  <text x="400" y="206" text-anchor="middle" fill="#111" font-size="18" font-weight="bold">B</text><text x="400" y="170" text-anchor="middle" fill="#f0ebe3" font-size="10">мото Custodes</text>
  <circle cx="850" cy="650" r="22" fill="#7eb8da" opacity="0.95"/>
  <text x="850" y="656" text-anchor="middle" fill="#111" font-size="18" font-weight="bold">C</text><text x="850" y="710" text-anchor="middle" fill="#f0ebe3" font-size="10">San Bartolomeo</text>
  <line x1="0" y1="0" x2="0" y2="900" stroke="#ffffff08" stroke-width="1"/><line x1="60" y1="0" x2="60" y2="900" stroke="#ffffff08" stroke-width="1"/><line x1="120" y1="0" x2="120" y2="900" stroke="#ffffff08" stroke-width="1"/><line x1="180" y1="0" x2="180" y2="900" stroke="#ffffff08" stroke-width="1"/><line x1="240" y1="0" x2="240" y2="900" stroke="#ffffff08" stroke-width="1"/><line x1="300" y1="0" x2="300" y2="900" stroke="#ffffff08" stroke-width="1"/><line x1="360" y1="0" x2="360" y2="900" stroke="#ffffff08" stroke-width="1"/><line x1="420" y1="0" x2="420" y2="900" stroke="#ffffff08" stroke-width="1"/><line x1="480" y1="0" x2="480" y2="900" stroke="#ffffff08" stroke-width="1"/><line x1="540" y1="0" x2="540" y2="900" stroke="#ffffff08" stroke-width="1"/><line x1="600" y1="0" x2="600" y2="900" stroke="#ffffff08" stroke-width="1"/><line x1="660" y1="0" x2="660" y2="900" stroke="#ffffff08" stroke-width="1"/><line x1="720" y1="0" x2="720" y2="900" stroke="#ffffff08" stroke-width="1"/><line x1="780" y1="0" x2="780" y2="900" stroke="#ffffff08" stroke-width="1"/><line x1="840" y1="0" x2="840" y2="900" stroke="#ffffff08" stroke-width="1"/><line x1="900" y1="0" x2="900" y2="900" stroke="#ffffff08" stroke-width="1"/><line x1="960" y1="0" x2="960" y2="900" stroke="#ffffff08" stroke-width="1"/><line x1="1020" y1="0" x2="1020" y2="900" stroke="#ffffff08" stroke-width="1"/><line x1="1080" y1="0" x2="1080" y2="900" stroke="#ffffff08" stroke-width="1"/><line x1="1140" y1="0" x2="1140" y2="900" stroke="#ffffff08" stroke-width="1"/><line x1="1200" y1="0" x2="1200" y2="900" stroke="#ffffff08" stroke-width="1"/><line x1="0" y1="0" x2="1200" y2="0" stroke="#ffffff08" stroke-width="1"/><line x1="0" y1="60" x2="1200" y2="60" stroke="#ffffff08" stroke-width="1"/><line x1="0" y1="120" x2="1200" y2="120" stroke="#ffffff08" stroke-width="1"/><line x1="0" y1="180" x2="1200" y2="180" stroke="#ffffff08" stroke-width="1"/><line x1="0" y1="240" x2="1200" y2="240" stroke="#ffffff08" stroke-width="1"/><line x1="0" y1="300" x2="1200" y2="300" stroke="#ffffff08" stroke-width="1"/><line x1="0" y1="360" x2="1200" y2="360" stroke="#ffffff08" stroke-width="1"/><line x1="0" y1="420" x2="1200" y2="420" stroke="#ffffff08" stroke-width="1"/><line x1="0" y1="480" x2="1200" y2="480" stroke="#ffffff08" stroke-width="1"/><line x1="0" y1="540" x2="1200" y2="540" stroke="#ffffff08" stroke-width="1"/><line x1="0" y1="600" x2="1200" y2="600" stroke="#ffffff08" stroke-width="1"/><line x1="0" y1="660" x2="1200" y2="660" stroke="#ffffff08" stroke-width="1"/><line x1="0" y1="720" x2="1200" y2="720" stroke="#ffffff08" stroke-width="1"/><line x1="0" y1="780" x2="1200" y2="780" stroke="#ffffff08" stroke-width="1"/><line x1="0" y1="840" x2="1200" y2="840" stroke="#ffffff08" stroke-width="1"/><line x1="0" y1="900" x2="1200" y2="900" stroke="#ffffff08" stroke-width="1"/>
  <defs>
    <radialGradient id="glow" cx="50%" cy="40%" r="70%">
      <stop offset="0%" stop-color="transparent"/>
      <stop offset="100%" stop-color="#0a0a0e"/>
    </radialGradient>
  </defs>
  <rect width="1200" height="900" fill="url(#glow)" opacity="0.35"/>
  
  <rect x="20" y="20" width="520" height="72" fill="#1e1c24" opacity="0.92" rx="4"/>
  <text x="36" y="52" fill="#f0ebe3" font-family="Georgia, serif" font-size="22">Мост Fabricius · остров Тибр</text>
  <text x="36" y="78" fill="#c9a227" font-family="Georgia, serif" font-size="14">Погоня · сц. 4</text>
</svg>